<?xml version="1.0" standalone="no"?>
<!DOCTYPE svg PUBLIC "-//W3C//DTD SVG 20010904//EN"
 "http://www.w3.org/TR/2001/REC-SVG-20010904/DTD/svg10.dtd">
<svg version="1.0" xmlns="http://www.w3.org/2000/svg"
 width="700.000000pt" height="700.000000pt" viewBox="0 0 700.000000 700.000000"
 preserveAspectRatio="xMidYMid meet">
<metadata>
Created by potrace 1.14, written by Peter Selinger 2001-2017
</metadata>
<g transform="translate(0.000000,700.000000) scale(0.100000,-0.100000)"
fill="#000000" stroke="none">
<path d="M0 3500 l0 -3500 3500 0 3500 0 0 3500 0 3500 -3500 0 -3500 0 0
-3500z m6677 0 l0 -3177 -3174 0 c-1745 0 -3174 3 -3175 6 -3 11 -5 6336 -2
6342 2 3 1431 5 3177 5 l3174 0 0 -3176z"/>
<path d="M853 6203 c3 -5 21 -60 41 -123 20 -63 65 -203 101 -310 35 -107 118
-364 185 -570 66 -206 137 -423 157 -482 l36 -107 196 1 197 0 262 788 c144
433 262 793 262 799 0 8 -55 11 -178 11 l-178 0 -32 -102 c-18 -57 -53 -164
-77 -238 -24 -74 -73 -229 -110 -345 -142 -442 -142 -443 -152 -415 -5 14 -86
267 -179 562 l-169 538 -183 0 c-101 0 -181 -3 -179 -7z"/>
<path d="M2461 5411 l0 -799 604 0 c448 0 604 3 607 11 3 10 2 194 -1 265 l-1
22 -429 0 -429 0 0 195 -1 195 388 0 387 0 0 135 0 135 -26 1 c-14 0 -188 0
-386 1 l-362 0 2 171 1 171 420 1 419 0 2 148 1 147 -598 0 -598 0 0 -799z"/>
<path d="M3939 6198 c-1 -17 -1 -1559 0 -1575 1 -9 43 -12 164 -10 l162 2 2
520 c0 286 1 526 2 534 1 8 98 -143 217 -335 119 -192 228 -367 243 -390 14
-22 67 -106 116 -186 l90 -146 175 1 175 2 1 798 0 797 -165 -2 -165 -3 0
-532 c0 -293 -1 -533 -2 -533 -1 0 -131 208 -289 463 -159 254 -302 485 -320
512 -18 28 -37 60 -44 73 -11 22 -15 22 -186 22 -133 0 -175 -3 -176 -12z"/>
<path d="M5625 5418 c1 -436 3 -796 3 -799 1 -4 78 -7 171 -7 122 -1 170 3
173 11 3 10 2 1557 -1 1580 -1 4 -79 7 -174 7 l-173 0 1 -792z"/>
<path d="M860 4333 c0 -7 34 -118 76 -246 111 -342 189 -580 319 -979 l116
-358 198 0 197 0 119 358 c66 196 120 359 120 362 0 3 65 197 143 431 78 234
142 431 142 436 0 14 -346 12 -358 -2 -4 -5 -16 -37 -26 -70 -18 -60 -153
-485 -205 -645 -16 -47 -50 -154 -77 -238 -26 -83 -51 -149 -55 -145 -4 5 -26
69 -49 143 -22 74 -45 146 -50 160 -5 14 -38 117 -74 230 -35 113 -91 288
-123 390 l-59 185 -177 1 c-146 1 -177 -1 -177 -13z"/>
<path d="M2734 4341 c-7 -4 -12 -1508 -5 -1578 1 -10 43 -13 174 -13 l173 0 0
799 0 799 -167 0 c-91 0 -170 -3 -175 -7z"/>
<path d="M3679 4346 c-5 -5 -3 -1580 2 -1588 4 -6 157 -8 420 -6 463 5 469 6
614 78 179 89 300 258 352 490 21 96 25 327 7 425 -60 323 -239 519 -534 586
-38 8 -182 13 -457 14 -222 1 -404 2 -404 1z m666 -299 c270 -19 401 -203 390
-547 -6 -189 -62 -317 -172 -389 -80 -53 -136 -64 -338 -66 -99 -1 -184 0
-190 2 -7 2 -10 177 -9 501 l1 497 114 5 c63 3 119 4 124 3 6 -1 42 -4 80 -6z"/>
<path d="M5628 4341 c0 -3 -2 -363 -3 -799 l-1 -792 175 2 175 3 1 797 0 796
-172 0 c-95 0 -174 -3 -175 -7z"/>
<path d="M1024 1688 l1 -797 158 -3 c88 -2 161 0 164 5 2 4 4 241 4 527 0 286
4 520 9 520 4 0 28 -33 53 -72 177 -286 491 -791 546 -878 l66 -105 169 3 c93
1 171 4 173 6 3 2 6 1247 4 1516 l-1 75 -163 0 -163 0 0 -532 c1 -293 -2 -533
-6 -533 -3 0 -18 21 -33 47 -15 25 -150 242 -299 482 -150 240 -279 447 -287
461 -7 14 -16 27 -19 30 -3 3 -10 14 -16 25 -11 19 -22 20 -186 20 l-174 0 0
-797z"/>
<path d="M3141 2470 c-3 -8 -6 -367 -5 -798 l1 -783 136 0 c75 0 155 1 177 1
l40 0 0 330 0 329 158 0 c86 0 236 0 333 0 l176 1 -1 135 0 135 -333 0 -333 0
0 185 0 185 385 0 386 0 -3 147 -3 148 -553 0 c-484 0 -555 -2 -561 -15z"/>
<path d="M4801 2480 c-4 -3 -7 -69 -7 -147 l0 -143 239 -2 239 -3 0 -647 0
-648 66 -1 c285 -2 276 -3 282 23 3 12 5 304 5 648 l-1 625 239 5 239 5 0 138
c0 77 -4 142 -7 145 -8 8 -1283 10 -1294 2z"/>
</g>
</svg>
